<svg width="77" height="22" viewBox="0 0 77 22" fill="none" xmlns="http://www.w3.org/2000/svg">
<rect width="77" height="22" rx="3" fill="#7D5AE2" fill-opacity="0.1"/>
<path d="M12.456 8.568V15H11.4V9.468H8.076V15H7.02V8.568H12.456ZM20.1003 11.772C20.1003 12.308 20.0283 12.784 19.8843 13.2C19.7483 13.608 19.5483 13.956 19.2843 14.244C19.0283 14.532 18.7123 14.752 18.3363 14.904C17.9683 15.048 17.5563 15.12 17.1003 15.12C16.6763 15.12 16.2843 15.048 15.9243 14.904C15.5643 14.752 15.2523 14.532 14.9883 14.244C14.7243 13.956 14.5163 13.608 14.3643 13.2C14.2203 12.784 14.1483 12.308 14.1483 11.772C14.1483 11.06 14.2683 10.46 14.5083 9.972C14.7483 9.476 15.0923 9.1 15.5403 8.844C15.9883 8.58 16.5203 8.448 17.1363 8.448C17.7203 8.448 18.2323 8.58 18.6723 8.844C19.1203 9.1 19.4683 9.476 19.7163 9.972C19.9723 10.46 20.1003 11.06 20.1003 11.772ZM15.2403 11.772C15.2403 12.276 15.3043 12.716 15.4323 13.092C15.5683 13.46 15.7763 13.744 16.0563 13.944C16.3363 14.144 16.6923 14.244 17.1243 14.244C17.5563 14.244 17.9123 14.144 18.1923 13.944C18.4723 13.744 18.6763 13.46 18.8043 13.092C18.9403 12.716 19.0083 12.276 19.0083 11.772C19.0083 11.26 18.9403 10.824 18.8043 10.464C18.6683 10.104 18.4603 9.828 18.1803 9.636C17.9083 9.436 17.5523 9.336 17.1123 9.336C16.4563 9.336 15.9803 9.552 15.6843 9.984C15.3883 10.416 15.2403 11.012 15.2403 11.772ZM26.5499 8.568V14.112H27.4859V17.232H26.4659V15H21.9899V17.232H20.9819V14.112H21.4979C21.8659 13.6 22.1699 13.044 22.4099 12.444C22.6579 11.836 22.8419 11.204 22.9619 10.548C23.0899 9.884 23.1579 9.224 23.1659 8.568H26.5499ZM24.1019 9.396C24.0699 9.94 23.9859 10.504 23.8499 11.088C23.7139 11.664 23.5379 12.216 23.3219 12.744C23.1139 13.272 22.8699 13.728 22.5899 14.112H25.5299V9.396H24.1019ZM31.8066 8.448C32.5986 8.448 33.2346 8.724 33.7146 9.276C34.2026 9.828 34.4466 10.66 34.4466 11.772C34.4466 12.5 34.3346 13.116 34.1106 13.62C33.8946 14.116 33.5866 14.492 33.1866 14.748C32.7946 14.996 32.3306 15.12 31.7946 15.12C31.4666 15.12 31.1746 15.076 30.9186 14.988C30.6626 14.9 30.4426 14.788 30.2586 14.652C30.0826 14.508 29.9306 14.352 29.8026 14.184H29.7306C29.7466 14.32 29.7626 14.492 29.7786 14.7C29.7946 14.908 29.8026 15.088 29.8026 15.24V17.88H28.7466V8.568H29.6106L29.7546 9.444H29.8026C29.9306 9.26 30.0826 9.092 30.2586 8.94C30.4426 8.788 30.6586 8.668 30.9066 8.58C31.1626 8.492 31.4626 8.448 31.8066 8.448ZM31.6146 9.336C31.1826 9.336 30.8346 9.42 30.5706 9.588C30.3066 9.748 30.1146 9.992 29.9946 10.32C29.8746 10.648 29.8106 11.064 29.8026 11.568V11.772C29.8026 12.3 29.8586 12.748 29.9706 13.116C30.0826 13.484 30.2706 13.764 30.5346 13.956C30.8066 14.148 31.1746 14.244 31.6386 14.244C32.0306 14.244 32.3506 14.136 32.5986 13.92C32.8546 13.704 33.0426 13.412 33.1626 13.044C33.2906 12.668 33.3546 12.24 33.3546 11.76C33.3546 11.024 33.2106 10.436 32.9226 9.996C32.6426 9.556 32.2066 9.336 31.6146 9.336ZM41.7214 11.772C41.7214 12.308 41.6494 12.784 41.5054 13.2C41.3694 13.608 41.1694 13.956 40.9054 14.244C40.6494 14.532 40.3334 14.752 39.9574 14.904C39.5894 15.048 39.1774 15.12 38.7214 15.12C38.2974 15.12 37.9054 15.048 37.5454 14.904C37.1854 14.752 36.8734 14.532 36.6094 14.244C36.3454 13.956 36.1374 13.608 35.9854 13.2C35.8414 12.784 35.7694 12.308 35.7694 11.772C35.7694 11.06 35.8894 10.46 36.1294 9.972C36.3694 9.476 36.7134 9.1 37.1614 8.844C37.6094 8.58 38.1414 8.448 38.7574 8.448C39.3414 8.448 39.8534 8.58 40.2934 8.844C40.7414 9.1 41.0894 9.476 41.3374 9.972C41.5934 10.46 41.7214 11.06 41.7214 11.772ZM36.8614 11.772C36.8614 12.276 36.9254 12.716 37.0534 13.092C37.1894 13.46 37.3974 13.744 37.6774 13.944C37.9574 14.144 38.3134 14.244 38.7454 14.244C39.1774 14.244 39.5334 14.144 39.8134 13.944C40.0934 13.744 40.2974 13.46 40.4254 13.092C40.5614 12.716 40.6294 12.276 40.6294 11.772C40.6294 11.26 40.5614 10.824 40.4254 10.464C40.2894 10.104 40.0814 9.828 39.8014 9.636C39.5294 9.436 39.1734 9.336 38.7334 9.336C38.0774 9.336 37.6014 9.552 37.3054 9.984C37.0094 10.416 36.8614 11.012 36.8614 11.772ZM43.059 11.136C43.059 10.2 43.151 9.404 43.335 8.748C43.527 8.084 43.819 7.556 44.211 7.164C44.611 6.764 45.123 6.496 45.747 6.36C46.267 6.248 46.775 6.148 47.271 6.06C47.767 5.972 48.231 5.892 48.663 5.82L48.843 6.744C48.635 6.776 48.403 6.816 48.147 6.864C47.891 6.904 47.631 6.948 47.367 6.996C47.103 7.036 46.847 7.08 46.599 7.128C46.359 7.168 46.147 7.208 45.963 7.248C45.699 7.304 45.463 7.4 45.255 7.536C45.047 7.664 44.867 7.84 44.715 8.064C44.571 8.288 44.455 8.564 44.367 8.892C44.279 9.22 44.227 9.608 44.211 10.056H44.283C44.395 9.904 44.547 9.748 44.739 9.588C44.939 9.428 45.175 9.292 45.447 9.18C45.727 9.068 46.043 9.012 46.395 9.012C46.955 9.012 47.419 9.136 47.787 9.384C48.163 9.624 48.443 9.96 48.627 10.392C48.819 10.824 48.915 11.328 48.915 11.904C48.915 12.616 48.791 13.212 48.543 13.692C48.295 14.172 47.951 14.532 47.511 14.772C47.071 15.004 46.559 15.12 45.975 15.12C45.535 15.12 45.135 15.036 44.775 14.868C44.415 14.692 44.107 14.436 43.851 14.1C43.595 13.764 43.399 13.348 43.263 12.852C43.127 12.356 43.059 11.784 43.059 11.136ZM46.059 14.244C46.411 14.244 46.715 14.172 46.971 14.028C47.235 13.884 47.439 13.648 47.583 13.32C47.727 12.992 47.799 12.556 47.799 12.012C47.799 11.356 47.675 10.84 47.427 10.464C47.187 10.08 46.787 9.888 46.227 9.888C45.875 9.888 45.555 9.968 45.267 10.128C44.979 10.28 44.739 10.456 44.547 10.656C44.355 10.856 44.219 11.024 44.139 11.16C44.139 11.552 44.167 11.932 44.223 12.3C44.279 12.668 44.375 13 44.511 13.296C44.655 13.584 44.851 13.816 45.099 13.992C45.355 14.16 45.675 14.244 46.059 14.244ZM51.6346 8.568V11.244H55.1266V8.568H56.1826V15H55.1266V12.132H51.6346V15H50.5786V8.568H51.6346ZM60.7032 8.448C61.2552 8.448 61.7272 8.568 62.1192 8.808C62.5192 9.048 62.8232 9.388 63.0312 9.828C63.2472 10.26 63.3552 10.768 63.3552 11.352V11.988H58.9512C58.9672 12.716 59.1512 13.272 59.5032 13.656C59.8632 14.032 60.3632 14.22 61.0032 14.22C61.4112 14.22 61.7712 14.184 62.0832 14.112C62.4032 14.032 62.7312 13.92 63.0672 13.776V14.7C62.7392 14.844 62.4152 14.948 62.0952 15.012C61.7752 15.084 61.3952 15.12 60.9552 15.12C60.3472 15.12 59.8072 14.996 59.3352 14.748C58.8712 14.5 58.5072 14.132 58.2432 13.644C57.9872 13.148 57.8592 12.544 57.8592 11.832C57.8592 11.128 57.9752 10.524 58.2072 10.02C58.4472 9.516 58.7792 9.128 59.2032 8.856C59.6352 8.584 60.1352 8.448 60.7032 8.448ZM60.6912 9.312C60.1872 9.312 59.7872 9.476 59.4912 9.804C59.2032 10.124 59.0312 10.572 58.9752 11.148H62.2512C62.2512 10.78 62.1952 10.46 62.0832 10.188C61.9712 9.916 61.7992 9.704 61.5672 9.552C61.3432 9.392 61.0512 9.312 60.6912 9.312ZM67.4767 8.448C68.0287 8.448 68.5007 8.568 68.8927 8.808C69.2927 9.048 69.5967 9.388 69.8047 9.828C70.0207 10.26 70.1287 10.768 70.1287 11.352V11.988H65.7247C65.7407 12.716 65.9247 13.272 66.2767 13.656C66.6367 14.032 67.1367 14.22 67.7767 14.22C68.1847 14.22 68.5447 14.184 68.8567 14.112C69.1767 14.032 69.5047 13.92 69.8407 13.776V14.7C69.5127 14.844 69.1887 14.948 68.8687 15.012C68.5487 15.084 68.1687 15.12 67.7287 15.12C67.1207 15.12 66.5807 14.996 66.1087 14.748C65.6447 14.5 65.2807 14.132 65.0167 13.644C64.7607 13.148 64.6327 12.544 64.6327 11.832C64.6327 11.128 64.7487 10.524 64.9807 10.02C65.2207 9.516 65.5527 9.128 65.9767 8.856C66.4087 8.584 66.9087 8.448 67.4767 8.448ZM67.4647 9.312C66.9607 9.312 66.5607 9.476 66.2647 9.804C65.9767 10.124 65.8047 10.572 65.7487 11.148H69.0247C69.0247 10.78 68.9687 10.46 68.8567 10.188C68.7447 9.916 68.5727 9.704 68.3407 9.552C68.1167 9.392 67.8247 9.312 67.4647 9.312Z" fill="#7D5AE2"/>
</svg>
