<svg width="202" height="36" viewBox="0 0 202 36" fill="none" xmlns="http://www.w3.org/2000/svg">
<path d="M0 2C0 0.895431 0.895431 0 2 0H68V36H2C0.895432 36 0 35.1046 0 34V2Z" fill="white"/>
<path d="M2 0.5H67.5V35.5H2C1.17157 35.5 0.5 34.8284 0.5 34V2C0.5 1.17157 1.17157 0.5 2 0.5Z" stroke="#141414" stroke-opacity="0.1"/>
<path d="M15.462 22V12.9H16.554V16.917H21.273V12.9H22.365V22H21.273V17.814H16.554V22H15.462ZM27.1582 22.156C26.5516 22.156 26.0056 22.0173 25.5202 21.74C25.0349 21.4627 24.6492 21.0727 24.3632 20.57C24.0859 20.0587 23.9472 19.4607 23.9472 18.776C23.9472 18.0913 24.0902 17.4977 24.3762 16.995C24.6622 16.4837 25.0479 16.0893 25.5332 15.812C26.0272 15.5347 26.5776 15.396 27.1842 15.396C27.7909 15.396 28.3369 15.5347 28.8222 15.812C29.3076 16.0893 29.6889 16.4837 29.9662 16.995C30.2522 17.4977 30.3952 18.0913 30.3952 18.776C30.3952 19.4607 30.2522 20.0587 29.9662 20.57C29.6802 21.0727 29.2902 21.4627 28.7962 21.74C28.3109 22.0173 27.7649 22.156 27.1582 22.156ZM27.1582 21.22C27.5309 21.22 27.8776 21.129 28.1982 20.947C28.5189 20.765 28.7789 20.492 28.9782 20.128C29.1776 19.764 29.2772 19.3133 29.2772 18.776C29.2772 18.2387 29.1776 17.788 28.9782 17.424C28.7876 17.06 28.5319 16.787 28.2112 16.605C27.8906 16.423 27.5482 16.332 27.1842 16.332C26.8116 16.332 26.4649 16.423 26.1442 16.605C25.8236 16.787 25.5636 17.06 25.3642 17.424C25.1649 17.788 25.0652 18.2387 25.0652 18.776C25.0652 19.3133 25.1649 19.764 25.3642 20.128C25.5636 20.492 25.8192 20.765 26.1312 20.947C26.4519 21.129 26.7942 21.22 27.1582 21.22ZM34.2666 22.156C33.5039 22.156 32.8973 21.9263 32.4466 21.467C31.9959 20.999 31.7706 20.284 31.7706 19.322V15.552H32.8626V19.205C32.8626 20.5483 33.4129 21.22 34.5136 21.22C35.0769 21.22 35.5406 21.0207 35.9046 20.622C36.2773 20.2147 36.4636 19.6383 36.4636 18.893V15.552H37.5556V22H36.5676L36.4896 20.843C36.2903 21.2503 35.9913 21.571 35.5926 21.805C35.2026 22.039 34.7606 22.156 34.2666 22.156ZM39.3531 22V15.552H40.3411L40.4321 16.787C40.6314 16.3623 40.9347 16.0243 41.3421 15.773C41.7494 15.5217 42.2521 15.396 42.8501 15.396V16.54H42.5511C42.1697 16.54 41.8187 16.6093 41.4981 16.748C41.1774 16.878 40.9217 17.1033 40.7311 17.424C40.5404 17.7447 40.4451 18.1867 40.4451 18.75V22H39.3531ZM44.0757 22V12.64H45.1677V22H44.0757ZM47.6595 24.86L49.2585 21.376H48.8815L46.3205 15.552H47.5035L49.6355 20.57L51.8975 15.552H53.0285L48.8035 24.86H47.6595Z" fill="#393F47"/>
<rect x="67" width="68" height="36" fill="white"/>
<rect x="67.5" y="0.5" width="67" height="35" stroke="#141414" stroke-opacity="0.1"/>
<path d="M75.962 22V12.9H77.236L80.512 19.244L83.762 12.9H85.049V22H83.957V14.85L80.915 20.7H80.096L77.054 14.863V22H75.962ZM89.8418 22.156C89.2352 22.156 88.6892 22.0173 88.2038 21.74C87.7185 21.4627 87.3328 21.0727 87.0468 20.57C86.7695 20.0587 86.6308 19.4607 86.6308 18.776C86.6308 18.0913 86.7738 17.4977 87.0598 16.995C87.3458 16.4837 87.7315 16.0893 88.2168 15.812C88.7108 15.5347 89.2612 15.396 89.8678 15.396C90.4745 15.396 91.0205 15.5347 91.5058 15.812C91.9912 16.0893 92.3725 16.4837 92.6498 16.995C92.9358 17.4977 93.0788 18.0913 93.0788 18.776C93.0788 19.4607 92.9358 20.0587 92.6498 20.57C92.3638 21.0727 91.9738 21.4627 91.4798 21.74C90.9945 22.0173 90.4485 22.156 89.8418 22.156ZM89.8418 21.22C90.2145 21.22 90.5612 21.129 90.8818 20.947C91.2025 20.765 91.4625 20.492 91.6618 20.128C91.8612 19.764 91.9608 19.3133 91.9608 18.776C91.9608 18.2387 91.8612 17.788 91.6618 17.424C91.4712 17.06 91.2155 16.787 90.8948 16.605C90.5742 16.423 90.2318 16.332 89.8678 16.332C89.4952 16.332 89.1485 16.423 88.8278 16.605C88.5072 16.787 88.2472 17.06 88.0478 17.424C87.8485 17.788 87.7488 18.2387 87.7488 18.776C87.7488 19.3133 87.8485 19.764 88.0478 20.128C88.2472 20.492 88.5028 20.765 88.8148 20.947C89.1355 21.129 89.4778 21.22 89.8418 21.22ZM94.5972 22V15.552H95.5852L95.6502 16.709C95.8582 16.3017 96.1572 15.981 96.5472 15.747C96.9372 15.513 97.3792 15.396 97.8732 15.396C98.6359 15.396 99.2425 15.63 99.6932 16.098C100.153 16.5573 100.382 17.268 100.382 18.23V22H99.2902V18.347C99.2902 17.0037 98.7355 16.332 97.6262 16.332C97.0715 16.332 96.6079 16.5357 96.2352 16.943C95.8712 17.3417 95.6892 17.9137 95.6892 18.659V22H94.5972ZM104.585 22C103.995 22 103.532 21.857 103.194 21.571C102.856 21.285 102.687 20.7693 102.687 20.024V16.475H101.569V15.552H102.687L102.83 14.005H103.779V15.552H105.677V16.475H103.779V20.024C103.779 20.4313 103.861 20.7087 104.026 20.856C104.19 20.9947 104.481 21.064 104.897 21.064H105.573V22H104.585ZM107.064 22V12.64H108.156V16.657C108.373 16.2583 108.68 15.9507 109.079 15.734C109.478 15.5087 109.911 15.396 110.379 15.396C111.124 15.396 111.722 15.63 112.173 16.098C112.624 16.5573 112.849 17.268 112.849 18.23V22H111.77V18.347C111.77 17.0037 111.228 16.332 110.145 16.332C109.582 16.332 109.109 16.5357 108.728 16.943C108.347 17.3417 108.156 17.9137 108.156 18.659V22H107.064ZM114.503 22V12.64H115.595V22H114.503ZM118.087 24.86L119.686 21.376H119.309L116.748 15.552H117.931L120.063 20.57L122.325 15.552H123.456L119.231 24.86H118.087Z" fill="#393F47"/>
<path d="M134.5 0.5H200C200.828 0.5 201.5 1.17157 201.5 2V34C201.5 34.8284 200.828 35.5 200 35.5H134.5V0.5Z" fill="#3575E2" fill-opacity="0.2"/>
<path d="M134.5 0.5H200C200.828 0.5 201.5 1.17157 201.5 2V34C201.5 34.8284 200.828 35.5 200 35.5H134.5V0.5Z" stroke="#3575E2"/>
<path d="M152.237 22V18.646L149.221 12.9H150.781L152.926 17.294L155.058 12.9H156.605L153.615 18.646V22H152.237ZM159.565 22.156C158.932 22.156 158.369 22.0173 157.875 21.74C157.389 21.454 157.008 21.0597 156.731 20.557C156.453 20.0543 156.315 19.4693 156.315 18.802C156.315 18.126 156.449 17.5323 156.718 17.021C156.995 16.5097 157.376 16.111 157.862 15.825C158.356 15.539 158.928 15.396 159.578 15.396C160.21 15.396 160.761 15.539 161.229 15.825C161.697 16.1023 162.061 16.475 162.321 16.943C162.581 17.411 162.711 17.9267 162.711 18.49C162.711 18.5767 162.706 18.672 162.698 18.776C162.698 18.8713 162.693 18.9797 162.685 19.101H157.667C157.71 19.725 157.914 20.2017 158.278 20.531C158.65 20.8517 159.079 21.012 159.565 21.012C159.955 21.012 160.28 20.9253 160.54 20.752C160.808 20.57 161.008 20.3273 161.138 20.024H162.516C162.342 20.6307 161.996 21.1377 161.476 21.545C160.964 21.9523 160.327 22.156 159.565 22.156ZM159.565 16.527C159.105 16.527 158.698 16.6657 158.343 16.943C157.987 17.2117 157.771 17.619 157.693 18.165H161.333C161.307 17.6623 161.129 17.2637 160.8 16.969C160.47 16.6743 160.059 16.527 159.565 16.527ZM166.325 22.156C165.779 22.156 165.328 22.065 164.973 21.883C164.617 21.701 164.353 21.4627 164.18 21.168C164.006 20.8647 163.92 20.5353 163.92 20.18C163.92 19.556 164.162 19.062 164.648 18.698C165.133 18.334 165.826 18.152 166.728 18.152H168.418V18.035C168.418 17.5323 168.279 17.1553 168.002 16.904C167.733 16.6527 167.382 16.527 166.949 16.527C166.567 16.527 166.234 16.6223 165.948 16.813C165.67 16.995 165.501 17.268 165.441 17.632H164.063C164.106 17.164 164.262 16.7653 164.531 16.436C164.808 16.098 165.155 15.8423 165.571 15.669C165.995 15.487 166.459 15.396 166.962 15.396C167.863 15.396 168.561 15.6343 169.055 16.111C169.549 16.579 169.796 17.2203 169.796 18.035V22H168.6L168.483 20.895C168.301 21.2503 168.036 21.5493 167.69 21.792C167.343 22.0347 166.888 22.156 166.325 22.156ZM166.598 21.038C166.97 21.038 167.282 20.9513 167.534 20.778C167.794 20.596 167.993 20.3577 168.132 20.063C168.279 19.7683 168.37 19.4433 168.405 19.088H166.871C166.325 19.088 165.935 19.1833 165.701 19.374C165.475 19.5647 165.363 19.803 165.363 20.089C165.363 20.3837 165.471 20.6177 165.688 20.791C165.913 20.9557 166.216 21.038 166.598 21.038ZM171.402 22V15.552H172.637L172.754 16.774C172.98 16.3493 173.292 16.0157 173.69 15.773C174.098 15.5217 174.587 15.396 175.159 15.396V16.839H174.782C174.401 16.839 174.059 16.904 173.755 17.034C173.461 17.1553 173.222 17.3677 173.04 17.671C172.867 17.9657 172.78 18.3773 172.78 18.906V22H171.402ZM176.341 22V12.64H177.719V22H176.341ZM180.218 24.86L181.765 21.467H181.388L178.84 15.552H180.335L182.311 20.323L184.378 15.552H185.834L181.674 24.86H180.218Z" fill="#3575E2"/>
</svg>
